<?xml version="1.0" encoding="UTF-8" standalone="no"?>
<svg
   xmlns:dc="http://purl.org/dc/elements/1.1/"
   xmlns:cc="http://creativecommons.org/ns#"
   xmlns:rdf="http://www.w3.org/1999/02/22-rdf-syntax-ns#"
   xmlns:svg="http://www.w3.org/2000/svg"
   xmlns="http://www.w3.org/2000/svg"
   xmlns:sodipodi="http://sodipodi.sourceforge.net/DTD/sodipodi-0.dtd"
   xmlns:inkscape="http://www.inkscape.org/namespaces/inkscape"
   width="256"
   height="256"
   viewBox="0 0 67.733332 67.733335"
   version="1.1"
   id="svg8"
   inkscape:version="1.0.2-2 (e86c870879, 2021-01-15)"
   sodipodi:docname="icon.svg"
   inkscape:export-filename="C:\Users\felix\AppData\Roaming\QGIS\QGIS3\profiles\default\python\plugins\easy_right_angle_draw\templates\icons\icon.png"
   inkscape:export-xdpi="99"
   inkscape:export-ydpi="99">
  <defs
     id="defs2" />
  <sodipodi:namedview
     id="base"
     pagecolor="#ffffff"
     bordercolor="#666666"
     borderopacity="1.0"
     inkscape:pageopacity="0.0"
     inkscape:pageshadow="2"
     inkscape:zoom="0.98994949"
     inkscape:cx="140.7494"
     inkscape:cy="230.54391"
     inkscape:document-units="px"
     inkscape:current-layer="layer1"
     inkscape:document-rotation="0"
     showgrid="false"
     objecttolerance="20"
     inkscape:snap-path-clip="false"
     inkscape:snap-perpendicular="true"
     inkscape:snap-tangential="true"
     inkscape:snap-path-mask="false"
     inkscape:snap-page="false"
     inkscape:snap-object-midpoints="true"
     inkscape:snap-to-guides="false"
     inkscape:snap-grids="true"
     inkscape:window-width="1920"
     inkscape:window-height="1017"
     inkscape:window-x="1912"
     inkscape:window-y="-8"
     inkscape:window-maximized="1"
     units="px" />
  <metadata
     id="metadata5">
    <rdf:RDF>
      <cc:Work
         rdf:about="">
        <dc:format>image/svg+xml</dc:format>
        <dc:type
           rdf:resource="http://purl.org/dc/dcmitype/StillImage" />
        <dc:title></dc:title>
      </cc:Work>
    </rdf:RDF>
  </metadata>
  <g
     inkscape:label="Ebene 1"
     inkscape:groupmode="layer"
     id="layer1">
    <path
       id="path833"
       style="fill:#0000ff;fill-opacity:0.0872211;stroke:#000000;stroke-width:0.677595;stroke-linecap:butt;stroke-linejoin:miter;stroke-miterlimit:4;stroke-dasharray:none;stroke-opacity:1"
       d="M 45.290025,3.2072343 H 12.319784 L 56.645154,64.719971 V 14.562364 a 11.355103,11.355103 0 0 1 -0.07977,-3.16e-4 11.355103,11.355103 0 0 1 -0.07977,-7.92e-4 11.355103,11.355103 0 0 1 -0.07962,-0.0014 11.355103,11.355103 0 0 1 -0.07977,-0.002 11.355103,11.355103 0 0 1 -0.07962,-0.0025 11.355103,11.355103 0 0 1 -0.07977,-0.0031 11.355103,11.355103 0 0 1 -0.07962,-0.0037 11.355103,11.355103 0 0 1 -0.07962,-0.0042 11.355103,11.355103 0 0 1 -0.07946,-0.0048 11.355103,11.355103 0 0 1 -0.07962,-0.0053 11.355103,11.355103 0 0 1 -0.07946,-0.0059 11.355103,11.355103 0 0 1 -0.07946,-0.0065 11.355103,11.355103 0 0 1 -0.07946,-0.007 11.355103,11.355103 0 0 1 -0.07931,-0.0076 11.355103,11.355103 0 0 1 -0.07931,-0.008 11.355103,11.355103 0 0 1 -0.07931,-0.0087 11.355103,11.355103 0 0 1 -0.07915,-0.0093 11.355103,11.355103 0 0 1 -0.07915,-0.0097 11.355103,11.355103 0 0 1 -0.079,-0.01036 11.355103,11.355103 0 0 1 -0.079,-0.01082 11.355103,11.355103 0 0 1 -0.07884,-0.01144 11.355103,11.355103 0 0 1 -0.07884,-0.01206 11.355103,11.355103 0 0 1 -0.07884,-0.01252 11.355103,11.355103 0 0 1 -0.07853,-0.01299 11.355103,11.355103 0 0 1 -0.07853,-0.01376 11.355103,11.355103 0 0 1 -0.07853,-0.01407 11.355103,11.355103 0 0 1 -0.07822,-0.01484 11.355103,11.355103 0 0 1 -0.07838,-0.0153 11.355103,11.355103 0 0 1 -0.07807,-0.01577 11.355103,11.355103 0 0 1 -0.07807,-0.01639 11.355103,11.355103 0 0 1 -0.07776,-0.01701 11.355103,11.355103 0 0 1 -0.07792,-0.01747 11.355103,11.355103 0 0 1 -0.07761,-0.01809 11.355103,11.355103 0 0 1 -0.07745,-0.01855 11.355103,11.355103 0 0 1 -0.07745,-0.01917 11.355103,11.355103 0 0 1 -0.0773,-0.01963 11.355103,11.355103 0 0 1 -0.07714,-0.0201 11.355103,11.355103 0 0 1 -0.07683,-0.02087 11.355103,11.355103 0 0 1 -0.07683,-0.02118 11.355103,11.355103 0 0 1 -0.07668,-0.02195 11.355103,11.355103 0 0 1 -0.07652,-0.02226 11.355103,11.355103 0 0 1 -0.07637,-0.02288 11.355103,11.355103 0 0 1 -0.07622,-0.0235 11.355103,11.355103 0 0 1 -0.07606,-0.02396 11.355103,11.355103 0 0 1 -0.07591,-0.02442 11.355103,11.355103 0 0 1 -0.0756,-0.02505 11.355103,11.355103 0 0 1 -0.0756,-0.02566 11.355103,11.355103 0 0 1 -0.07529,-0.02613 11.355103,11.355103 0 0 1 -0.07513,-0.02659 11.355103,11.355103 0 0 1 -0.07498,-0.02705 11.355103,11.355103 0 0 1 -0.07482,-0.02767 11.355103,11.355103 0 0 1 -0.07451,-0.02829 11.355103,11.355103 0 0 1 -0.07436,-0.02876 11.355103,11.355103 0 0 1 -0.07421,-0.02922 11.355103,11.355103 0 0 1 -0.0739,-0.02968 11.355103,11.355103 0 0 1 -0.07374,-0.0303 11.355103,11.355103 0 0 1 -0.07359,-0.03077 11.355103,11.355103 0 0 1 -0.07328,-0.03138 11.355103,11.355103 0 0 1 -0.07312,-0.03185 11.355103,11.355103 0 0 1 -0.07281,-0.03231 11.355103,11.355103 0 0 1 -0.07266,-0.03293 11.355103,11.355103 0 0 1 -0.07235,-0.03324 11.355103,11.355103 0 0 1 -0.0722,-0.03386 11.355103,11.355103 0 0 1 -0.07189,-0.03447 11.355103,11.355103 0 0 1 -0.07173,-0.03478 11.355103,11.355103 0 0 1 -0.07142,-0.0354 11.355103,11.355103 0 0 1 -0.07127,-0.03587 11.355103,11.355103 0 0 1 -0.0708,-0.03648 11.355103,11.355103 0 0 1 -0.0708,-0.03679 11.355103,11.355103 0 0 1 -0.07034,-0.03741 11.355103,11.355103 0 0 1 -0.07019,-0.03787 11.355103,11.355103 0 0 1 -0.06988,-0.03834 11.355103,11.355103 0 0 1 -0.06957,-0.0388 11.355103,11.355103 0 0 1 -0.06941,-0.03942 11.355103,11.355103 0 0 1 -0.0691,-0.03973 11.355103,11.355103 0 0 1 -0.06864,-0.04035 11.355103,11.355103 0 0 1 -0.06849,-0.04081 11.355103,11.355103 0 0 1 -0.06833,-0.04128 11.355103,11.355103 0 0 1 -0.06787,-0.04174 11.355103,11.355103 0 0 1 -0.06756,-0.0422 11.355103,11.355103 0 0 1 -0.0674,-0.04267 11.355103,11.355103 0 0 1 -0.06694,-0.04313 11.355103,11.355103 0 0 1 -0.06678,-0.04375 11.355103,11.355103 0 0 1 -0.06648,-0.04406 11.355103,11.355103 0 0 1 -0.06601,-0.04452 11.355103,11.355103 0 0 1 -0.06586,-0.04514 11.355103,11.355103 0 0 1 -0.06539,-0.04545 11.355103,11.355103 0 0 1 -0.06524,-0.04591 11.355103,11.355103 0 0 1 -0.06478,-0.04638 11.355103,11.355103 0 0 1 -0.06447,-0.04684 11.355103,11.355103 0 0 1 -0.06416,-0.04731 11.355103,11.355103 0 0 1 -0.06385,-0.04777 11.355103,11.355103 0 0 1 -0.06354,-0.04823 11.355103,11.355103 0 0 1 -0.06307,-0.0487 11.355103,11.355103 0 0 1 -0.06277,-0.04901 11.355103,11.355103 0 0 1 -0.06246,-0.04962 11.355103,11.355103 0 0 1 -0.06215,-0.04993 11.355103,11.355103 0 0 1 -0.06184,-0.0504 11.355103,11.355103 0 0 1 -0.06137,-0.05086 11.355103,11.355103 0 0 1 -0.06106,-0.05133 11.355103,11.355103 0 0 1 -0.0606,-0.05163 11.355103,11.355103 0 0 1 -0.06045,-0.0521 11.355103,11.355103 0 0 1 -0.05983,-0.05256 11.355103,11.355103 0 0 1 -0.05967,-0.05303 11.355103,11.355103 0 0 1 -0.05921,-0.05334 11.355103,11.355103 0 0 1 -0.05875,-0.0538 11.355103,11.355103 0 0 1 -0.05859,-0.05426 11.355103,11.355103 0 0 1 -0.05797,-0.05457 11.355103,11.355103 0 0 1 -0.05767,-0.05504 11.355103,11.355103 0 0 1 -0.05735,-0.05534 11.355103,11.355103 0 0 1 -0.05689,-0.05581 11.355103,11.355103 0 0 1 -0.05658,-0.05627 11.355103,11.355103 0 0 1 -0.05612,-0.05658 11.355103,11.355103 0 0 1 -0.05565,-0.05705 11.355103,11.355103 0 0 1 -0.05535,-0.05735 11.355103,11.355103 0 0 1 -0.05488,-0.05782 11.355103,11.355103 0 0 1 -0.05457,-0.05828 11.355103,11.355103 0 0 1 -0.05411,-0.05844 11.355103,11.355103 0 0 1 -0.05364,-0.05906 11.355103,11.355103 0 0 1 -0.05334,-0.05921 11.355103,11.355103 0 0 1 -0.05287,-0.05967 11.355103,11.355103 0 0 1 -0.05241,-0.06014 11.355103,11.355103 0 0 1 -0.05194,-0.06029 11.355103,11.355103 0 0 1 -0.05163,-0.06091 11.355103,11.355103 0 0 1 -0.05117,-0.06106 11.355103,11.355103 0 0 1 -0.05071,-0.06153 11.355103,11.355103 0 0 1 -0.05024,-0.06184 11.355103,11.355103 0 0 1 -0.04993,-0.06215 11.355103,11.355103 0 0 1 -0.04932,-0.06261 11.355103,11.355103 0 0 1 -0.04901,-0.06292 11.355103,11.355103 0 0 1 -0.04854,-0.06323 11.355103,11.355103 0 0 1 -0.04808,-0.06354 11.355103,11.355103 0 0 1 -0.04762,-0.064 11.355103,11.355103 0 0 1 -0.04731,-0.06416 11.355103,11.355103 0 0 1 -0.04669,-0.06462 11.355103,11.355103 0 0 1 -0.04622,-0.06493 11.355103,11.355103 0 0 1 -0.04592,-0.06524 11.355103,11.355103 0 0 1 -0.0453,-0.06555 11.355103,11.355103 0 0 1 -0.04499,-0.06586 11.355103,11.355103 0 0 1 -0.04437,-0.06617 11.355103,11.355103 0 0 1 -0.04406,-0.06648 11.355103,11.355103 0 0 1 -0.04344,-0.06679 11.355103,11.355103 0 0 1 -0.04313,-0.06709 11.355103,11.355103 0 0 1 -0.04251,-0.0674 11.355103,11.355103 0 0 1 -0.04205,-0.06771 11.355103,11.355103 0 0 1 -0.04174,-0.06802 11.355103,11.355103 0 0 1 -0.04112,-0.06833 11.355103,11.355103 0 0 1 -0.04066,-0.06849 11.355103,11.355103 0 0 1 -0.04019,-0.06895 11.355103,11.355103 0 0 1 -0.03958,-0.0691 11.355103,11.355103 0 0 1 -0.03927,-0.06941 11.355103,11.355103 0 0 1 -0.0388,-0.06972 11.355103,11.355103 0 0 1 -0.03818,-0.06988 11.355103,11.355103 0 0 1 -0.03772,-0.07019 11.355103,11.355103 0 0 1 -0.03726,-0.0705 11.355103,11.355103 0 0 1 -0.03679,-0.0708 11.355103,11.355103 0 0 1 -0.03618,-0.07096 11.355103,11.355103 0 0 1 -0.03571,-0.07127 11.355103,11.355103 0 0 1 -0.03525,-0.07158 11.355103,11.355103 0 0 1 -0.03478,-0.07173 11.355103,11.355103 0 0 1 -0.03432,-0.07189 11.355103,11.355103 0 0 1 -0.0337,-0.07235 11.355103,11.355103 0 0 1 -0.03324,-0.07235 11.355103,11.355103 0 0 1 -0.03262,-0.07281 11.355103,11.355103 0 0 1 -0.03231,-0.07281 11.355103,11.355103 0 0 1 -0.03169,-0.07312 11.355103,11.355103 0 0 1 -0.03107,-0.07343 11.355103,11.355103 0 0 1 -0.03076,-0.07359 11.355103,11.355103 0 0 1 -0.03015,-0.07374 11.355103,11.355103 0 0 1 -0.02953,-0.07405 11.355103,11.355103 0 0 1 -0.02922,-0.0742 11.355103,11.355103 0 0 1 -0.0286,-0.07451 11.355103,11.355103 0 0 1 -0.02798,-0.07451 11.355103,11.355103 0 0 1 -0.02752,-0.07482 11.355103,11.355103 0 0 1 -0.02705,-0.07498 11.355103,11.355103 0 0 1 -0.02644,-0.07529 11.355103,11.355103 0 0 1 -0.02597,-0.07529 11.355103,11.355103 0 0 1 -0.02551,-0.0756 11.355103,11.355103 0 0 1 -0.02489,-0.07575 11.355103,11.355103 0 0 1 -0.02427,-0.0759 11.355103,11.355103 0 0 1 -0.02396,-0.07606 11.355103,11.355103 0 0 1 -0.02319,-0.07621 11.355103,11.355103 0 0 1 -0.02272,-0.07637 11.355103,11.355103 0 0 1 -0.02226,-0.07668 11.355103,11.355103 0 0 1 -0.0218,-0.07668 11.355103,11.355103 0 0 1 -0.02102,-0.07683 11.355103,11.355103 0 0 1 -0.02072,-0.07699 11.355103,11.355103 0 0 1 -0.01994,-0.07714 11.355103,11.355103 0 0 1 -0.01963,-0.0773 11.355103,11.355103 0 0 1 -0.01886,-0.07745 11.355103,11.355103 0 0 1 -0.01855,-0.07761 11.355103,11.355103 0 0 1 -0.01778,-0.07761 11.355103,11.355103 0 0 1 -0.01747,-0.07792 11.355103,11.355103 0 0 1 -0.0167,-0.07792 11.355103,11.355103 0 0 1 -0.01623,-0.07807 11.355103,11.355103 0 0 1 -0.01577,-0.07807 11.355103,11.355103 0 0 1 -0.01515,-0.07822 11.355103,11.355103 0 0 1 -0.01453,-0.07838 11.355103,11.355103 0 0 1 -0.01407,-0.07854 11.355103,11.355103 0 0 1 -0.0136,-0.07853 11.355103,11.355103 0 0 1 -0.01283,-0.07869 11.355103,11.355103 0 0 1 -0.01252,-0.07869 11.355103,11.355103 0 0 1 -0.01175,-0.07884 11.355103,11.355103 0 0 1 -0.01129,-0.079 11.355103,11.355103 0 0 1 -0.01082,-0.079 11.355103,11.355103 0 0 1 -0.01005,-0.079 11.355103,11.355103 0 0 1 -0.0097,-0.07915 11.355103,11.355103 0 0 1 -0.009,-0.07931 11.355103,11.355103 0 0 1 -0.0085,-0.07915 11.355103,11.355103 0 0 1 -0.008,-0.07931 11.355103,11.355103 0 0 1 -0.0074,-0.07946 11.355103,11.355103 0 0 1 -0.0068,-0.07946 11.355103,11.355103 0 0 1 -0.0063,-0.07946 11.355103,11.355103 0 0 1 -0.0057,-0.07946 11.355103,11.355103 0 0 1 -0.0051,-0.07962 11.355103,11.355103 0 0 1 -0.0046,-0.07946 11.355103,11.355103 0 0 1 -0.004,-0.07962 11.355103,11.355103 0 0 1 -0.0036,-0.07977 11.355103,11.355103 0 0 1 -0.0029,-0.07962 11.355103,11.355103 0 0 1 -0.0023,-0.07962 11.355103,11.355103 0 0 1 -0.0019,-0.07977 11.355103,11.355103 0 0 1 -0.0012,-0.07977 11.355103,11.355103 0 0 1 -6.33e-4,-0.07962 11.355103,11.355103 0 0 1 -1.58e-4,-0.0589 z" />
    <path
       id="path870"
       style="fill:#d4d4d4;fill-opacity:1;stroke:#000000;stroke-width:0.677595;stroke-linecap:butt;stroke-linejoin:miter;stroke-miterlimit:4;stroke-dasharray:none;stroke-opacity:1"
       d="m 45.290025,3.2072343 a 11.355103,11.355103 0 0 0 1.58e-4,0.0589 11.355103,11.355103 0 0 0 6.33e-4,0.07961 11.355103,11.355103 0 0 0 0.0012,0.07977 11.355103,11.355103 0 0 0 0.0019,0.07977 11.355103,11.355103 0 0 0 0.0023,0.07962 11.355103,11.355103 0 0 0 0.0029,0.07962 11.355103,11.355103 0 0 0 0.0036,0.07977 11.355103,11.355103 0 0 0 0.004,0.07962 11.355103,11.355103 0 0 0 0.0046,0.07946 11.355103,11.355103 0 0 0 0.0051,0.07962 11.355103,11.355103 0 0 0 0.0057,0.07946 11.355103,11.355103 0 0 0 0.0063,0.07946 11.355103,11.355103 0 0 0 0.0068,0.07946 11.355103,11.355103 0 0 0 0.0074,0.07946 11.355103,11.355103 0 0 0 0.008,0.07931 11.355103,11.355103 0 0 0 0.0085,0.07915 11.355103,11.355103 0 0 0 0.009,0.07931 11.355103,11.355103 0 0 0 0.0097,0.07915 11.355103,11.355103 0 0 0 0.01005,0.079 11.355103,11.355103 0 0 0 0.01082,0.079 11.355103,11.355103 0 0 0 0.01129,0.079 11.355103,11.355103 0 0 0 0.01175,0.07884 11.355103,11.355103 0 0 0 0.01252,0.07869 11.355103,11.355103 0 0 0 0.01283,0.07869 11.355103,11.355103 0 0 0 0.0136,0.07853 11.355103,11.355103 0 0 0 0.01407,0.07853 11.355103,11.355103 0 0 0 0.01453,0.07838 11.355103,11.355103 0 0 0 0.01515,0.07822 11.355103,11.355103 0 0 0 0.01577,0.07807 11.355103,11.355103 0 0 0 0.01623,0.07807 11.355103,11.355103 0 0 0 0.0167,0.07792 11.355103,11.355103 0 0 0 0.01747,0.07792 11.355103,11.355103 0 0 0 0.01778,0.07761 11.355103,11.355103 0 0 0 0.01855,0.07761 11.355103,11.355103 0 0 0 0.01886,0.07745 11.355103,11.355103 0 0 0 0.01963,0.0773 11.355103,11.355103 0 0 0 0.01994,0.07714 11.355103,11.355103 0 0 0 0.02071,0.07699 11.355103,11.355103 0 0 0 0.02103,0.07683 11.355103,11.355103 0 0 0 0.0218,0.07668 11.355103,11.355103 0 0 0 0.02226,0.07668 11.355103,11.355103 0 0 0 0.02273,0.07637 11.355103,11.355103 0 0 0 0.02319,0.07621 11.355103,11.355103 0 0 0 0.02396,0.07606 11.355103,11.355103 0 0 0 0.02427,0.0759 11.355103,11.355103 0 0 0 0.02489,0.07575 11.355103,11.355103 0 0 0 0.02551,0.0756 11.355103,11.355103 0 0 0 0.02597,0.07529 11.355103,11.355103 0 0 0 0.02644,0.07529 11.355103,11.355103 0 0 0 0.02705,0.07498 11.355103,11.355103 0 0 0 0.02752,0.07482 11.355103,11.355103 0 0 0 0.02798,0.07451 11.355103,11.355103 0 0 0 0.0286,0.07451 11.355103,11.355103 0 0 0 0.02922,0.0742 11.355103,11.355103 0 0 0 0.02953,0.07405 11.355103,11.355103 0 0 0 0.03015,0.07374 11.355103,11.355103 0 0 0 0.03076,0.07359 11.355103,11.355103 0 0 0 0.03107,0.07343 11.355103,11.355103 0 0 0 0.03169,0.07312 11.355103,11.355103 0 0 0 0.03231,0.07281 11.355103,11.355103 0 0 0 0.03262,0.07281 11.355103,11.355103 0 0 0 0.03324,0.07235 11.355103,11.355103 0 0 0 0.0337,0.07235 11.355103,11.355103 0 0 0 0.03432,0.07189 11.355103,11.355103 0 0 0 0.03478,0.07173 11.355103,11.355103 0 0 0 0.03525,0.07158 11.355103,11.355103 0 0 0 0.03571,0.07127 11.355103,11.355103 0 0 0 0.03617,0.07096 11.355103,11.355103 0 0 0 0.03679,0.0708 11.355103,11.355103 0 0 0 0.03726,0.0705 11.355103,11.355103 0 0 0 0.03772,0.07019 11.355103,11.355103 0 0 0 0.03818,0.06988 11.355103,11.355103 0 0 0 0.0388,0.06972 11.355103,11.355103 0 0 0 0.03927,0.06941 11.355103,11.355103 0 0 0 0.03958,0.0691 11.355103,11.355103 0 0 0 0.04019,0.06895 11.355103,11.355103 0 0 0 0.04066,0.06849 11.355103,11.355103 0 0 0 0.04112,0.06833 11.355103,11.355103 0 0 0 0.04174,0.06802 11.355103,11.355103 0 0 0 0.04205,0.06771 11.355103,11.355103 0 0 0 0.04251,0.0674 11.355103,11.355103 0 0 0 0.04313,0.06709 11.355103,11.355103 0 0 0 0.04344,0.06679 11.355103,11.355103 0 0 0 0.04406,0.06648 11.355103,11.355103 0 0 0 0.04437,0.06617 11.355103,11.355103 0 0 0 0.04499,0.06586 11.355103,11.355103 0 0 0 0.0453,0.06555 11.355103,11.355103 0 0 0 0.04592,0.06524 11.355103,11.355103 0 0 0 0.04622,0.06493 11.355103,11.355103 0 0 0 0.04669,0.06462 11.355103,11.355103 0 0 0 0.04731,0.06416 11.355103,11.355103 0 0 0 0.04762,0.064 11.355103,11.355103 0 0 0 0.04808,0.06354 11.355103,11.355103 0 0 0 0.04854,0.06323 11.355103,11.355103 0 0 0 0.04901,0.06292 11.355103,11.355103 0 0 0 0.04932,0.06261 11.355103,11.355103 0 0 0 0.04993,0.06215 11.355103,11.355103 0 0 0 0.05024,0.06184 11.355103,11.355103 0 0 0 0.05071,0.06153 11.355103,11.355103 0 0 0 0.05117,0.06106 11.355103,11.355103 0 0 0 0.05163,0.06091 11.355103,11.355103 0 0 0 0.05194,0.06029 11.355103,11.355103 0 0 0 0.05241,0.06014 11.355103,11.355103 0 0 0 0.05287,0.05967 11.355103,11.355103 0 0 0 0.05334,0.05921 11.355103,11.355103 0 0 0 0.05364,0.05906 11.355103,11.355103 0 0 0 0.05411,0.05844 11.355103,11.355103 0 0 0 0.05457,0.05828 11.355103,11.355103 0 0 0 0.05488,0.05782 11.355103,11.355103 0 0 0 0.05535,0.05735 11.355103,11.355103 0 0 0 0.05565,0.05705 11.355103,11.355103 0 0 0 0.05612,0.05658 11.355103,11.355103 0 0 0 0.05658,0.05627 11.355103,11.355103 0 0 0 0.05689,0.05581 11.355103,11.355103 0 0 0 0.05735,0.05534 11.355103,11.355103 0 0 0 0.05766,0.05504 11.355103,11.355103 0 0 0 0.05797,0.05457 11.355103,11.355103 0 0 0 0.05859,0.05426 11.355103,11.355103 0 0 0 0.05875,0.0538 11.355103,11.355103 0 0 0 0.05921,0.05334 11.355103,11.355103 0 0 0 0.05967,0.05303 11.355103,11.355103 0 0 0 0.05983,0.05256 11.355103,11.355103 0 0 0 0.06045,0.0521 11.355103,11.355103 0 0 0 0.0606,0.05163 11.355103,11.355103 0 0 0 0.06106,0.05132 11.355103,11.355103 0 0 0 0.06137,0.05086 11.355103,11.355103 0 0 0 0.06184,0.0504 11.355103,11.355103 0 0 0 0.06215,0.04993 11.355103,11.355103 0 0 0 0.06246,0.04962 11.355103,11.355103 0 0 0 0.06276,0.04901 11.355103,11.355103 0 0 0 0.06307,0.0487 11.355103,11.355103 0 0 0 0.06354,0.04823 11.355103,11.355103 0 0 0 0.06385,0.04777 11.355103,11.355103 0 0 0 0.06416,0.04731 11.355103,11.355103 0 0 0 0.06447,0.04684 11.355103,11.355103 0 0 0 0.06477,0.04638 11.355103,11.355103 0 0 0 0.06524,0.04591 11.355103,11.355103 0 0 0 0.06539,0.04545 11.355103,11.355103 0 0 0 0.06586,0.04514 11.355103,11.355103 0 0 0 0.06601,0.04452 11.355103,11.355103 0 0 0 0.06647,0.04406 11.355103,11.355103 0 0 0 0.06678,0.04375 11.355103,11.355103 0 0 0 0.06694,0.04313 11.355103,11.355103 0 0 0 0.0674,0.04267 11.355103,11.355103 0 0 0 0.06756,0.0422 11.355103,11.355103 0 0 0 0.06787,0.04174 11.355103,11.355103 0 0 0 0.06833,0.04128 11.355103,11.355103 0 0 0 0.06849,0.04081 11.355103,11.355103 0 0 0 0.06864,0.04035 11.355103,11.355103 0 0 0 0.0691,0.03973 11.355103,11.355103 0 0 0 0.06941,0.03942 11.355103,11.355103 0 0 0 0.06957,0.0388 11.355103,11.355103 0 0 0 0.06988,0.03834 11.355103,11.355103 0 0 0 0.07019,0.03787 11.355103,11.355103 0 0 0 0.07034,0.03741 11.355103,11.355103 0 0 0 0.0708,0.03679 11.355103,11.355103 0 0 0 0.0708,0.03648 11.355103,11.355103 0 0 0 0.07127,0.03587 11.355103,11.355103 0 0 0 0.07142,0.0354 11.355103,11.355103 0 0 0 0.07173,0.03478 11.355103,11.355103 0 0 0 0.07189,0.03448 11.355103,11.355103 0 0 0 0.07219,0.03386 11.355103,11.355103 0 0 0 0.07235,0.03324 11.355103,11.355103 0 0 0 0.07266,0.03293 11.355103,11.355103 0 0 0 0.07281,0.03231 11.355103,11.355103 0 0 0 0.07312,0.03185 11.355103,11.355103 0 0 0 0.07328,0.03138 11.355103,11.355103 0 0 0 0.07359,0.03076 11.355103,11.355103 0 0 0 0.07374,0.0303 11.355103,11.355103 0 0 0 0.0739,0.02968 11.355103,11.355103 0 0 0 0.07421,0.02922 11.355103,11.355103 0 0 0 0.07436,0.02875 11.355103,11.355103 0 0 0 0.07451,0.02829 11.355103,11.355103 0 0 0 0.07482,0.02767 11.355103,11.355103 0 0 0 0.07498,0.02705 11.355103,11.355103 0 0 0 0.07513,0.02659 11.355103,11.355103 0 0 0 0.07529,0.02613 11.355103,11.355103 0 0 0 0.0756,0.02566 11.355103,11.355103 0 0 0 0.0756,0.02504 11.355103,11.355103 0 0 0 0.07591,0.02443 11.355103,11.355103 0 0 0 0.07606,0.02396 11.355103,11.355103 0 0 0 0.07622,0.0235 11.355103,11.355103 0 0 0 0.07637,0.02288 11.355103,11.355103 0 0 0 0.07652,0.02226 11.355103,11.355103 0 0 0 0.07668,0.02195 11.355103,11.355103 0 0 0 0.07683,0.02118 11.355103,11.355103 0 0 0 0.07683,0.02087 11.355103,11.355103 0 0 0 0.07714,0.0201 11.355103,11.355103 0 0 0 0.0773,0.01963 11.355103,11.355103 0 0 0 0.07745,0.01917 11.355103,11.355103 0 0 0 0.07745,0.01855 11.355103,11.355103 0 0 0 0.07761,0.01809 11.355103,11.355103 0 0 0 0.07792,0.01747 11.355103,11.355103 0 0 0 0.07776,0.01701 11.355103,11.355103 0 0 0 0.07807,0.01639 11.355103,11.355103 0 0 0 0.07807,0.01577 11.355103,11.355103 0 0 0 0.07838,0.0153 11.355103,11.355103 0 0 0 0.07822,0.01484 11.355103,11.355103 0 0 0 0.07853,0.01407 11.355103,11.355103 0 0 0 0.07853,0.01376 11.355103,11.355103 0 0 0 0.07853,0.01299 11.355103,11.355103 0 0 0 0.07884,0.01252 11.355103,11.355103 0 0 0 0.07884,0.01206 11.355103,11.355103 0 0 0 0.07884,0.01144 11.355103,11.355103 0 0 0 0.079,0.01082 11.355103,11.355103 0 0 0 0.079,0.01036 11.355103,11.355103 0 0 0 0.07915,0.0097 11.355103,11.355103 0 0 0 0.07915,0.0093 11.355103,11.355103 0 0 0 0.07931,0.0087 11.355103,11.355103 0 0 0 0.07931,0.008 11.355103,11.355103 0 0 0 0.07931,0.0076 11.355103,11.355103 0 0 0 0.07946,0.007 11.355103,11.355103 0 0 0 0.07946,0.0065 11.355103,11.355103 0 0 0 0.07946,0.0059 11.355103,11.355103 0 0 0 0.07962,0.0053 11.355103,11.355103 0 0 0 0.07946,0.0048 11.355103,11.355103 0 0 0 0.07962,0.0042 11.355103,11.355103 0 0 0 0.07962,0.0037 11.355103,11.355103 0 0 0 0.07977,0.0031 11.355103,11.355103 0 0 0 0.07962,0.0025 11.355103,11.355103 0 0 0 0.07977,0.002 11.355103,11.355103 0 0 0 0.07962,0.0014 11.355103,11.355103 0 0 0 0.07977,7.92e-4 11.355103,11.355103 0 0 0 0.07977,3.16e-4 V 3.2072343 Z" />
    <circle
       style="opacity:0.997;fill:#ff0000;fill-opacity:1;stroke:#000000;stroke-width:0.677595;stroke-linecap:round;stroke-linejoin:round;stroke-miterlimit:4;stroke-dasharray:none;stroke-opacity:1;paint-order:stroke markers fill"
       id="path873"
       cx="52.574158"
       cy="7.278235"
       r="2.0388792" />
    <path
       style="fill:none;stroke:#ffffff;stroke-width:0.677595;stroke-linecap:butt;stroke-linejoin:miter;stroke-miterlimit:4;stroke-dasharray:0.677595, 0.677595;stroke-dashoffset:0;stroke-opacity:1"
       d="M 12.319784,3.2072343 56.645153,64.719971"
       id="path1051" />
    <g
       transform="matrix(2.1943224,0,0,2.1943224,-5.4722029,-30.040804)"
       id="g940">
      <g
         id="g961"
         transform="translate(-10.202554,7.4332894)">
        <rect
           fill="#5a8c5a"
           height="13"
           rx="2.6149371"
           width="13"
           x="19"
           y="19"
           id="rect930" />
        <g
           fill-rule="evenodd"
           id="g938">
          <path
             d="m 21.6,25.499999 h 7.8"
             fill="#ffffff"
             stroke="#ffffff"
             stroke-linecap="round"
             stroke-linejoin="round"
             stroke-width="2.6"
             id="path932" />
          <path
             d="M 25.5,29.399999 V 21.6"
             fill="#ffffff"
             stroke="#ffffff"
             stroke-linecap="round"
             stroke-linejoin="round"
             stroke-width="2.6"
             id="path934" />
          <path
             d="m 20.3,25.499999 h 10.4 c 0,0 0,0 0,-2.6 C 30.7,20.3 30.05,20.3 25.5,20.3 c -4.55,0 -5.2,0 -5.2,2.599999 z"
             fill="#fcffff"
             opacity="0.3"
             id="path936" />
        </g>
      </g>
    </g>
    <circle
       style="opacity:0.997;fill:#0000ff;fill-opacity:1;stroke:none;stroke-width:0.677595;stroke-linecap:round;stroke-linejoin:round;stroke-miterlimit:4;stroke-dasharray:none;stroke-opacity:1;paint-order:stroke markers fill"
       id="path873-7"
       cx="12.319784"
       cy="3.2072356"
       r="2.0388792" />
    <circle
       style="opacity:0.997;fill:#0000ff;fill-opacity:1;stroke:none;stroke-width:0.677595;stroke-linecap:round;stroke-linejoin:round;stroke-miterlimit:4;stroke-dasharray:none;stroke-opacity:1;paint-order:stroke markers fill"
       id="path873-7-8"
       cx="56.645157"
       cy="64.719971"
       r="2.0388792" />
  </g>
</svg>
